# xmcd
#
# Track frame offsets:
#	150
#	13002
#	27155
#	40562
#	54507
#	66160
#	79929
#	93362
#	106297
#	118287
#	129527
#	142232
#	154777
#	166395
#	178150
#	192347
#	202650
#	212902
#	224430
#	237512
#
# Disc length: 3281
#
# Revision: 1
# Processed by: cddbd v1.5.1PL0 Copyright (c) Steve Scherf et al.
# Submitted via: CDex 1.50
# Normalized: r0:DSETVAR1,TDELIM( - )
#
DISCID=240ccf14
DTITLE=Various Artist - From The Vaults - Country Classics 1934-1972 C.D.1
DYEAR=1900
DGENRE=Country
TTITLE0=Stuart Hamblen and His Covered Wagon Jubilee - Texas Plains
TTITLE1=Milton Brown and His Brownies - The Eyes Of Texas
TTITLE2=My Dixie Darling - The Carter Family
TTITLE3=Rex Griffin - The Last Letter
TTITLE4=Riley Puckett - Short Life Of Trouble
TTITLE5=Buddy Jones - I'l Get Mine Bye And Bye No. 2
TTITLE6=Cliff Bruner and His Boys - Truck Driver's Blues
TTITLE7=Jimmie Davis and Charles Mitchell's Orchestra - You Are My Sunshine
TTITLE8=Ernest Tubb - Walking The Floor Over You
TTITLE9=Floyd Tillman and His Favourite Playboys - They Took The Stars Out Of Heaven
TTITLE10=Red Foley - Chatanoogie Shoe Shine Boy
TTITLE11=Bill Monroe and His Blue Grass Boys - Uncle Pen
TTITLE12=Kitty Wells - It Wasn't God Who Made Honky Tonk Angels
TTITLE13=Goldie Hill - I Let The Stars Get In My Eyes
TTITLE14=Rex Allen - Crying In The Chapel
TTITLE15=Grady Martin and His Winging Strings - Pork Chop Stomp
TTITLE16=Justin Tubb - I Gotta Go Get My Baby
TTITLE17=Red Sovine and Webb Pierce - Why Baby Why
TTITLE18=Bobby Helms - Fraulein
TTITLE19=Webb Pierce - I Aint Never
EXTD=
EXTT0=
EXTT1=
EXTT2=
EXTT3=
EXTT4=
EXTT5=
EXTT6=
EXTT7=
EXTT8=
EXTT9=
EXTT10=
EXTT11=
EXTT12=
EXTT13=
EXTT14=
EXTT15=
EXTT16=
EXTT17=
EXTT18=
EXTT19=
PLAYORDER=
